<?xml version="1.0" encoding="utf-8"?>
<!-- Generator: Adobe Illustrator 16.0.0, SVG Export Plug-In . SVG Version: 6.00 Build 0)  -->
<!DOCTYPE svg PUBLIC "-//W3C//DTD SVG 1.1//EN" "http://www.w3.org/Graphics/SVG/1.1/DTD/svg11.dtd">
<svg version="1.1" id="Layer_1" xmlns="http://www.w3.org/2000/svg" xmlns:xlink="http://www.w3.org/1999/xlink" x="0px" y="0px"
	 width="612px" height="792px" viewBox="0 0 612 792" enable-background="new 0 0 612 792" xml:space="preserve">
<path fill="#FFFFFF" d="M306,361.795c-18.522,0-33.536,15.014-33.536,33.536c0,18.521,15.014,33.535,33.536,33.535
	c18.521,0,33.536-15.015,33.536-33.535C339.536,376.809,324.521,361.795,306,361.795 M325.385,399.611
	c0,1.013-0.82,1.834-1.834,1.834h-11.437v11.437c0,1.013-0.821,1.834-1.834,1.834h-8.56c-1.014,0-1.835-0.821-1.835-1.834v-11.437
	h-11.436c-1.013,0-1.835-0.821-1.835-1.834v-8.561c0-1.014,0.822-1.835,1.835-1.835h11.436V377.78c0-1.014,0.821-1.835,1.835-1.835
	h8.56c1.013,0,1.834,0.821,1.834,1.835v11.436h11.437c1.014,0,1.834,0.821,1.834,1.835V399.611z"/>
</svg>
