<?xml version="1.0" encoding="utf-8"?>
<!-- Generator: Adobe Illustrator 16.0.0, SVG Export Plug-In . SVG Version: 6.00 Build 0)  -->
<!DOCTYPE svg PUBLIC "-//W3C//DTD SVG 1.1//EN" "http://www.w3.org/Graphics/SVG/1.1/DTD/svg11.dtd">
<svg version="1.1" id="Layer_1" xmlns="http://www.w3.org/2000/svg" xmlns:xlink="http://www.w3.org/1999/xlink" x="0px" y="0px"
	 width="612px" height="792px" viewBox="0 0 612 792" enable-background="new 0 0 612 792" xml:space="preserve">
<path fill="#FFFFFF" d="M330.938,370.434h-3.613v-5.45c0-1.761-1.429-3.188-3.189-3.188s-3.188,1.428-3.188,3.188v5.45h-6.378v-5.45
	c0-1.761-1.429-3.188-3.19-3.188c-1.761,0-3.189,1.428-3.189,3.188v5.45h-6.378v-5.45c0-1.761-1.428-3.188-3.188-3.188
	s-3.189,1.428-3.189,3.188v5.45h-6.378v-5.45c0-1.761-1.428-3.188-3.188-3.188c-1.763,0-3.189,1.428-3.189,3.188v5.45h-3.614
	c-0.881,0-1.595,0.714-1.595,1.594v55.244c0,0.88,0.714,1.595,1.595,1.595h51.874c0.882,0,1.596-0.715,1.596-1.595v-55.244
	C332.532,371.147,331.818,370.434,330.938,370.434 M322.323,414.322c0,0.679-0.552,1.23-1.231,1.23h-32.184
	c-0.681,0-1.231-0.552-1.231-1.23v-2.54c0-0.68,0.551-1.23,1.231-1.23h32.184c0.68,0,1.231,0.551,1.231,1.23V414.322z
	 M322.323,399.971c0,0.68-0.552,1.231-1.231,1.231h-32.184c-0.681,0-1.231-0.552-1.231-1.231v-2.54c0-0.679,0.551-1.229,1.231-1.229
	h32.184c0.68,0,1.231,0.551,1.231,1.229V399.971z M322.323,385.62c0,0.68-0.552,1.23-1.231,1.23h-32.184
	c-0.681,0-1.231-0.551-1.231-1.23v-2.539c0-0.681,0.551-1.231,1.231-1.231h32.184c0.68,0,1.231,0.551,1.231,1.231V385.62z"/>
</svg>
